<svg width="20" height="20" viewBox="0 0 20 20" fill="none" xmlns="http://www.w3.org/2000/svg">
<path d="M19.808 12.2002L18.8913 13.1168L16.9663 11.1918L17.883 10.2752C18.0663 10.0918 18.433 10.0918 18.6163 10.2752L19.808 11.4668C19.9913 11.6502 19.9913 11.9252 19.808 12.2002ZM10.9163 17.2418L16.508 11.6502L18.433 13.5752L12.8413 19.1668H10.9163V17.2418ZM9.08301 17.2418V16.5085L9.63301 15.9585L10.0913 15.5002H6.33301V13.6668H4.49967V6.3335H6.33301V4.50016H13.6663V6.3335H15.4997V10.0918L16.508 9.0835L16.6913 8.90016C16.8747 8.71683 17.1497 8.5335 17.4247 8.44183V6.3335H19.258V0.833496H13.758V2.66683H6.33301V0.833496H0.833008V6.3335H2.66634V13.6668H0.833008V19.1668H6.33301V17.3335L9.08301 17.2418ZM15.4997 2.66683H17.333V4.50016H15.4997V2.66683ZM2.66634 2.66683H4.49967V4.50016H2.66634V2.66683ZM4.49967 17.3335H2.66634V15.5002H4.49967V17.3335Z" fill="#303133"/>
</svg>
